<?xml version="1.0" encoding="utf-8"?>
<!-- Generator: Adobe Illustrator 19.0.0, SVG Export Plug-In . SVG Version: 6.00 Build 0)  -->
<svg version="1.1" id="Layer_1" xmlns="http://www.w3.org/2000/svg" xmlns:xlink="http://www.w3.org/1999/xlink" x="0px" y="0px"
	 viewBox="-463 337 96 96" style="enable-background:new -463 337 96 96;" xml:space="preserve">
<style type="text/css">
	.st0{fill:none;stroke:#231F20;stroke-width:6;stroke-linecap:round;stroke-miterlimit:10;}
	.st1{fill:none;stroke:#231F20;stroke-width:3;stroke-linecap:round;stroke-miterlimit:10;}
</style>
<g>
	<circle class="st0" cx="-414.7" cy="385" r="44"/>
	<path class="st1" d="M-417,399c0,0.2,0,0.5,0,0.7c0,8.8-7.2,16-16,16s-16-7.2-16-16c0-8.8,7.2-16,16-16c0.2,0,0.5,0,0.7,0
		c1.6-4.7,6.1-8,11.3-8c6.6,0,12,5.4,12,12C-409,392.9-412.4,397.4-417,399z"/>
	<path class="st1" d="M-414.5,376.7l17-17.2c0,0,5.8-6,8.5-3.2s4,4.3,4,4.3h-4l4,4h-4h-3.5l-17,16.8"/>
	<circle class="st1" cx="-429" cy="395.7" r="4"/>
</g>
</svg>
