<?xml version="1.0" encoding="utf-8"?>
<!-- Generator: Adobe Illustrator 19.0.0, SVG Export Plug-In . SVG Version: 6.00 Build 0)  -->
<svg version="1.1" id="Layer_1" xmlns="http://www.w3.org/2000/svg" xmlns:xlink="http://www.w3.org/1999/xlink" x="0px" y="0px"
	 viewBox="-511 337 192 96" style="enable-background:new -511 337 192 96;" xml:space="preserve">
<style type="text/css">
	.st0{fill:#231F20;}
</style>
<g>
	<path class="st0" d="M-464,431.3c-25.9,0-47-21.1-47-47s21.1-47,47-47s47,21.1,47,47S-438.1,431.3-464,431.3z M-464,343.3
		c-22.6,0-41,18.4-41,41s18.4,41,41,41s41-18.4,41-41S-441.4,343.3-464,343.3z"/>
	<path class="st0" d="M-482.3,416.5c-9.6,0-17.5-7.9-17.5-17.5c0-9.5,7.7-17.3,17.2-17.5c2.2-4.8,7-8,12.3-8
		c7.4,0,13.5,6.1,13.5,13.5c0,5.4-3.2,10.2-8,12.3C-465,408.8-472.8,416.5-482.3,416.5z M-482.2,384.5c-8.1-0.1-14.6,6.5-14.6,14.5
		c0,8,6.5,14.5,14.5,14.5s14.5-6.5,14.5-14.5c0-0.2,0-0.4,0-0.5l-0.1-1.2l1.1-0.4c4.2-1.5,7-5.5,7-9.9c0-5.8-4.7-10.5-10.5-10.5
		c-4.5,0-8.4,2.8-9.9,7l-0.4,1.1l-1.2-0.1C-481.9,384.5-482.1,384.5-482.2,384.5z"/>
	<path class="st0" d="M-458.8,382c-0.4,0-0.8-0.1-1.1-0.4c-0.6-0.6-0.6-1.5,0-2.1l17.4-17.4h4.5l-4-4h4.1c-0.5-0.5-1-1-1.5-1.6
		c-0.1-0.1-0.4-0.3-0.7-0.3c-1.7,0-4.5,2.4-5.6,3.6l-17,17.3c-0.6,0.6-1.5,0.6-2.1,0c-0.6-0.6-0.6-1.5,0-2.1l17-17.2
		c0.4-0.4,4.3-4.5,7.7-4.5c1.1,0,2.1,0.4,2.9,1.1c2.7,2.7,4,4.1,4,4.2l2.3,2.5h-3.8l4,4h-10.5l-16.6,16.6
		C-458.1,381.9-458.4,382-458.8,382z"/>
	<path class="st0" d="M-478.3,400.5c-3,0-5.5-2.5-5.5-5.5s2.5-5.5,5.5-5.5s5.5,2.5,5.5,5.5S-475.3,400.5-478.3,400.5z M-478.3,392.5
		c-1.4,0-2.5,1.1-2.5,2.5s1.1,2.5,2.5,2.5s2.5-1.1,2.5-2.5S-477,392.5-478.3,392.5z"/>
</g>
<g>
	<path class="st0" d="M-366,431.3c-25.9,0-47-21.1-47-47s21.1-47,47-47s47,21.1,47,47S-340.1,431.3-366,431.3z M-366,343.3
		c-22.6,0-41,18.4-41,41s18.4,41,41,41s41-18.4,41-41S-343.4,343.3-366,343.3z"/>
	<path class="st0" d="M-382.3,393.5c-0.4,0-0.8-0.1-1.1-0.4c-0.6-0.6-0.6-1.5,0-2.1l15.5-15.5c0.6-0.6,1.5-0.6,2.1,0
		c0.6,0.6,0.6,1.5,0,2.1l-15.5,15.5C-381.6,393.4-381.9,393.5-382.3,393.5z"/>
	<path class="st0" d="M-377.3,398.5c-0.4,0-0.8-0.1-1.1-0.4c-0.6-0.6-0.6-1.5,0-2.1l15.5-15.5c0.6-0.6,1.5-0.6,2.1,0
		c0.6,0.6,0.6,1.5,0,2.1l-15.5,15.5C-376.6,398.4-376.9,398.5-377.3,398.5z"/>
	<path class="st0" d="M-359.3,383.5c-5.2,0-9.5-4.3-9.5-9.5s4.3-9.5,9.5-9.5s9.5,4.3,9.5,9.5S-354.1,383.5-359.3,383.5z
		 M-359.3,367.5c-3.6,0-6.5,2.9-6.5,6.5s2.9,6.5,6.5,6.5s6.5-2.9,6.5-6.5S-355.7,367.5-359.3,367.5z"/>
</g>
</svg>
